<svg id="Layer_1" data-name="Layer 1" xmlns="http://www.w3.org/2000/svg" viewBox="0 0 600.5 434.06"><defs><style>.cls-1{fill:#0062ff;}</style></defs><polygon class="cls-1" points="373.83 0 363.26 13.74 323.32 65.63 179.15 252.95 150.91 216.26 317.35 0 373.83 0"/><polygon class="cls-1" points="179.15 252.95 150.91 289.64 122.67 252.95 39.94 145.45 39.94 72.07 179.15 252.95"/><polygon class="cls-1" points="39.94 72.07 39.94 434.06 0 434.06 0 20.19 39.94 72.07"/><path class="cls-1" d="M652,241c-.58,87.39-51.89,171.24-120,183.06A105,105,0,0,1,514,425.59c-24.33,0-47.17-8.41-67-23.17,0-19.84,0-39.68-.32-59.52.09,5.86,19.39,16.79,23.06,18.88,24.9,14.21,54.37,14.24,78.64-2.22,29-19.65,48.81-58.63,54.24-100.08,2.89-22.09,1.66-45.07-4.2-66.19-13.62-49.13-49.29-85.24-90-85.24-40.07,0-67.75,44.68-93.63,78.32L376,236.71l-1.19,1.55L198,468H141.54l51-66.31L300.51,261.45l97.38-126.53c31-40.31,70.26-78.53,116.14-78.53,71.61,0,130.92,75.38,137.4,166.9Q652.06,232.15,652,241Z" transform="translate(-51.5 -33.94)"/><line class="cls-1" x1="395.51" y1="308.43" x2="395.51" y2="308.05"/><path class="cls-1" d="M366.73,178.84" transform="translate(-51.5 -33.94)"/><path class="cls-1" d="M553.56,98.71" transform="translate(-51.5 -33.94)"/><rect class="cls-1" x="323.32" y="242.47" width="39.94" height="191.58"/><line class="cls-1" x1="395.51" y1="308.43" x2="395.51" y2="308.05"/><polyline class="cls-1" points="363.26 335.32 363.26 242.47 327.01 242.47"/></svg>